<svg width="1600" height="900" viewBox="0 0 1600 900" xmlns="http://www.w3.org/2000/svg">
  <defs>
    <radialGradient id="glow2" cx="60%" cy="42%" r="45%">
      <stop offset="0%" stop-color="#EFE3C0" stop-opacity="0.9"/>
      <stop offset="100%" stop-color="#FAF7F2" stop-opacity="0"/>
    </radialGradient>
  </defs>
  <rect width="1600" height="900" fill="#FAF7F2"/>
  <rect x="24" y="24" width="1552" height="852" fill="none" stroke="#D4AF37" stroke-width="2"/>
  <rect width="1600" height="900" fill="url(#glow2)"/>
  <g transform="translate(700,0) scale(0.98)">
    <path d="M300 900 C300 700 320 555 342 428 C350 378 356 350 361 330 C350 300 345 262 352 236 C340 226 331 215 333 204 C352 184 448 184 467 204 C469 215 460 226 448 236 C455 262 450 300 439 330 C444 350 450 378 458 428 C480 555 500 700 500 900 Z" fill="#141414"/>
    <rect x="381" y="146" width="38" height="52" rx="16" fill="#141414"/>
    <circle cx="400" cy="118" r="52" fill="#141414"/>
    <ellipse cx="400" cy="58" rx="40" ry="28" fill="#141414"/>
    <path d="M386 192 C394 208 406 208 414 192" fill="none" stroke="#D4AF37" stroke-width="4" stroke-linecap="round"/>
    <path d="M362 330 C390 342 410 342 438 330" fill="none" stroke="#D4AF37" stroke-width="6" stroke-linecap="round"/>
    <path d="M444 152 L448 176" stroke="#D4AF37" stroke-width="3" stroke-linecap="round"/>
    <circle cx="449" cy="187" r="6" fill="none" stroke="#D4AF37" stroke-width="3"/>
    <path d="M700 900 L700 480 M520 900 L520 560" stroke="#D4AF37" stroke-width="2" opacity="0.35"/>
  </g>
  <text x="800" y="836" font-family="Georgia, serif" font-size="30" fill="#B08C3D" text-anchor="middle" letter-spacing="10">V.CLOSET</text>
</svg>
